<?xml version="1.0" encoding="UTF-8"?>
<svg xmlns="http://www.w3.org/2000/svg" viewBox="101.3 75.2 465.4 406.8">
  <g transform="translate(-4.5705306,-10.283681)">
    <path fill="#E85A2C" d="m 137.00709,471.09267 c 0,-0.7518 3.72661,-8.06814 8.28136,-16.25854 4.55475,-8.1904 12.76725,-23.15384 18.25,-33.25208 5.48275,-10.09824 10.53687,-18.58608 11.23137,-18.86187 0.69451,-0.27579 1.94054,0.0611 2.76896,0.74861 2.49429,2.07008 17.46831,23.6427 17.46831,25.16608 0,2.01906 -4.67209,6.16746 -19.5,17.31429 -7.15,5.37498 -13.1875,9.93484 -13.41667,10.13301 -0.22917,0.19818 -0.1477,0.62929 0.18105,0.95803 0.32874,0.32874 8.16624,-2.7797 17.41666,-6.90765 37.50249,-16.73528 94.73644,-40.74383 95.98604,-40.26432 0.73311,0.28132 1.30549,0.86311 1.27198,1.29287 -0.0335,0.42977 -6.91313,14.28139 -15.28802,30.78139 l -15.22707,30 -54.71198,0.25854 c -45.72457,0.21607 -54.71199,0.034 -54.71199,-1.10836 z m 286.06268,-35.24295 c -17.7439,-35.3935 -18.43063,-36.57762 -20.95391,-36.13022 -1.43482,0.25441 -9.2281,2.32116 -17.31839,4.59277 -8.09028,2.27162 -15.40278,4.13022 -16.25,4.13022 -2.16651,0 -1.92422,-1.66932 0.95553,-6.58324 2.64182,-4.50793 3.53015,-4.96217 15.50409,-7.92791 13.03241,-3.22791 14,-3.57454 14,-5.01537 0,-0.79719 -2.32171,-6.11775 -5.15935,-11.82347 l -5.15936,-10.37403 11.79758,-21.88799 c 14.52872,-26.95505 24.60697,-45.55557 27.67031,-51.06858 1.27763,-2.29933 2.04886,-4.4547 1.71384,-4.78972 -0.33502,-0.33503 -12.92876,5.09127 -27.98608,12.05842 -15.05732,6.96716 -28.40197,12.72253 -29.65479,12.78973 -2.0164,0.10814 -3.20372,-1.94388 -10.34433,-17.87784 -4.43657,-9.9 -10.01486,-22.5 -12.3962,-28 -2.38133,-5.5 -4.89993,-10 -5.59688,-10 -0.69694,0 -6.35243,11.475 -12.56774,25.5 -19.55352,44.12299 -28.64928,63.17161 -30.85458,64.61658 -3.00659,1.97 -59.28022,28.38342 -60.47069,28.38342 -0.54545,0 -0.99173,-0.62557 -0.99173,-1.39016 0,-0.76459 7.42391,-16.40209 16.49758,-34.75 9.07367,-18.34791 16.49867,-33.92234 16.5,-34.60984 0.001,-0.6875 -0.41048,-1.25 -0.91512,-1.25 -0.50465,0 -7.59215,3.0949 -15.75,6.87755 -42.18029,19.55826 -57.71663,26.27769 -59.71177,25.8252 -6.00978,-1.36299 -35.09657,-12.35888 -34.94791,-13.21162 0.24867,-1.42649 -0.63703,-1.02185 40.32722,-18.42376 41.66958,-17.70155 91.55567,-39.03983 123.5,-52.8259 13.24468,-5.71595 26.53951,-12.35415 36,-17.97504 14.72982,-8.75163 18.61314,-11.11808 37.32657,-22.74643 7.87691,-4.89463 9.52967,-5.57974 10.63327,-4.40772 0.71869,0.76325 9.06893,15.78772 18.55609,33.38772 9.48716,17.6 25.45333,47.075 35.48038,65.5 10.02706,18.425 23.21155,42.725 29.29888,54 6.08733,11.275 22.09356,40.72921 35.56939,65.45381 13.47584,24.7246 24.28009,45.3121 24.00946,45.75 -0.27064,0.4379 -25.12376,0.79619 -55.22916,0.79619 h -54.73708 z m -87.56268,-1.62943 c -7.69831,-5.5398 -29.34276,-22.40306 -32.25,-25.12608 -1.7875,-1.67423 -3.25,-3.59183 -3.25,-4.26134 0,-0.66951 2.8125,-3.56128 6.25,-6.42617 6.69358,-5.57857 32.8874,-29.31872 44.00132,-39.87955 11.29444,-10.73236 6.45401,-8.81393 -10.466,4.14804 -26.13199,20.01902 -50.0099,36.7673 -52.4189,36.7673 -6.21844,0 -43.36642,-13.22559 -43.36642,-15.43951 0,-1.20365 6.99342,-4.56471 61,-29.31683 11.275,-5.16752 28.375,-13.13221 38,-17.6993 58.07393,-27.55627 67.1397,-31.73799 67.66584,-31.21186 0.88327,0.88328 -1.36685,5.72263 -10.54679,22.68316 -4.60952,8.51639 -11.65216,21.55934 -15.65031,28.98434 -25.31924,47.02065 -39.98536,73.85808 -41.66911,76.25 -2.31472,3.28826 -3.35871,3.36374 -7.29963,0.5278 z M 213.50963,426.4466 c -0.60453,-0.97815 15.80876,-34.46044 17.36396,-35.42161 1.61168,-0.99607 35.6335,10.75894 35.6335,12.31186 0,0.86441 -9.31179,5.44694 -24.5,12.057 -29.40702,12.7982 -27.80316,12.17615 -28.49746,11.05275 z m -21.95308,-15.98161 c -5.97927,-8.25214 -11.58647,-15.60277 -12.46043,-16.33474 -0.87397,-0.73198 -9.23903,-3.02684 -18.58903,-5.0997 -32.75486,-7.26163 -34.5,-7.72247 -34.5,-9.11026 0,-0.73866 1.0125,-1.65956 2.25,-2.04643 2.91172,-0.91026 81.15183,-37.1185 116.9959,-54.14378 5.36025,-2.54601 10.02514,-4.34988 10.36643,-4.00859 0.34129,0.34129 -0.40314,3.00563 -1.65429,5.92076 -4.73248,11.02653 -49.50447,99.29197 -50.4976,99.55319 -0.57176,0.15038 -5.9317,-6.47832 -11.91098,-14.73045 z m 50.1137,-130.69267 c -0.3686,-0.3686 -0.0606,-1.6061 0.68456,-2.75 1.72861,-2.65382 18.84716,-34.34338 29.6188,-54.82983 4.55469,-8.6625 8.81002,-15.75 9.45631,-15.75 0.64628,0 7.63225,3.85769 15.52437,8.57264 7.89213,4.71495 20.15943,11.75956 27.26066,15.65468 10.51542,5.76785 12.66832,7.31714 11.60174,8.34894 -0.72028,0.6968 -7.3846,3.82199 -14.8096,6.94487 -40.29606,16.94816 -52.73803,22.33784 -64.90143,28.11438 -7.37079,3.50047 -13.48329,6.36449 -13.58334,6.36449 -0.10004,0 -0.48348,-0.30158 -0.85207,-0.67017 z m 77.32805,-57.91454 c -20.6117,-12.91972 -21.18739,-13.32676 -20.74134,-14.6649 0.41179,-1.23538 38.85512,-12.86537 40.52228,-12.25892 1.60272,0.58301 1.33001,37.6433 -0.28094,38.17896 -0.55484,0.18449 -9.32984,-4.88033 -19.5,-11.25514 z m 29.67545,9.91804 c -0.36666,-0.36666 -0.66666,-8.70579 -0.66666,-18.53138 0,-15.07631 0.23769,-17.95593 1.52283,-18.44909 1.83094,-0.70259 38.4039,10.29754 40.32426,12.12842 1.11177,1.05997 -0.89712,2.67372 -11.5,9.23796 -16.60241,10.27853 -26.96383,16.28076 -28.1049,16.28076 -0.49987,0 -1.20886,-0.3 -1.57553,-0.66667 z m -63.66666,-31.50251 c 0,-2.14072 48.81089,-90.86412 51.59714,-93.78796 3.14179,-3.29695 3.42814,0.32038 3.16464,39.97759 l -0.26178,39.39689 -3.5,1.24721 c -5.29445,1.88665 -44.0374,13.1938 -47.75,13.93586 -2.44512,0.48871 -3.25,0.29812 -3.25,-0.76959 z m 107,-1.44516 c -21.62057,-6.2994 -41.61435,-12.66243 -42.76149,-13.60885 -0.98437,-0.81214 -1.20405,-9.63094 -1,-40.14531 0.22627,-33.83853 0.46364,-39.14344 1.76266,-39.39342 1.83681,-0.35348 2.56082,0.85131 27.50002,45.76192 27.07125,48.74999 26.49881,47.69335 26.49881,48.91248 0,1.57119 -2.42701,1.26239 -12,-1.52682 z"/>
    <path fill="#0F2A4D" d="m 138.00709,470.7778 c 0,-0.91558 1.87613,-5.07808 4.16919,-9.25 2.29306,-4.17192 10.20408,-18.61031 17.58005,-32.08531 7.37597,-13.475 14.07131,-25.175 14.87852,-26 1.7241,-1.76209 1.34835,-2.17579 12.99629,14.30881 l 7.63745,10.8088 -2.88075,3.06179 c -1.58441,1.68399 -8.95575,7.66113 -16.38075,13.28254 -21.46335,16.24975 -21.1662,16.87639 2.89947,6.11449 30.28138,-13.5415 93.99597,-40.57643 95.62852,-40.57643 1.21074,0 1.43117,0.55459 0.89429,2.25 -0.88797,2.80414 -28.24413,56.7884 -29.64448,58.5 -0.79493,0.97161 -12.91031,1.25 -54.40025,1.25 -49.12702,0 -53.37755,-0.13256 -53.37755,-1.66469 z m 304.36497,0.89938 c -0.62427,-0.40408 -8.80166,-16.05398 -18.17197,-34.77755 -9.37032,-18.72357 -17.86511,-35.06559 -18.87731,-36.31561 -1.63067,-2.01379 -2.18079,-2.14298 -4.82803,-1.13385 -1.64321,0.6264 -9.62516,2.87194 -17.73766,4.99009 -16.44147,4.29283 -17.21188,4.08947 -12.23793,-3.23034 2.6454,-3.89307 2.3567,-3.77179 18.55222,-7.79327 4.71036,-1.16962 9.20902,-2.52505 9.99703,-3.01206 1.17324,-0.7251 0.48237,-2.79641 -3.81429,-11.43581 -2.88587,-5.80269 -5.24703,-11.2531 -5.24703,-12.11204 0,-0.85894 3.4488,-7.94103 7.66401,-15.73798 4.21521,-7.79695 11.00951,-20.47627 15.09846,-28.17627 4.08895,-7.7 9.86514,-18.30366 12.83599,-23.56368 2.97085,-5.26002 5.40154,-9.87252 5.40154,-10.25 0,-1.76349 -4.91452,0.15366 -29.29901,11.42951 -22.98747,10.62984 -31.70099,14.12496 -31.70099,12.71573 0,-2.00101 -25.24131,-56.33156 -26.17096,-56.33156 -0.67745,0 -6.32841,11.475 -12.5577,25.5 -14.80005,33.32177 -27.04119,59.91092 -28.93577,62.85181 -0.9293,1.4425 -6.79668,4.86971 -15.17533,8.86409 -25.92574,12.35964 -45.31202,21.2841 -46.23468,21.2841 -0.50906,0 -0.92556,-0.62557 -0.92556,-1.39016 0,-0.76459 7.42391,-16.40209 16.49758,-34.75 9.07367,-18.34791 16.49867,-33.69734 16.5,-34.10984 0.006,-1.96739 -5.45555,-0.006 -24.67064,8.85726 -36.59436,16.8806 -49.24732,22.39274 -51.40189,22.39274 -2.37067,0 -33.91847,-10.80622 -35.35019,-12.10867 -1.0783,-0.98094 1.13494,-2.00862 35.42514,-16.44921 14.025,-5.90634 33.15,-14.09931 42.5,-18.20661 9.35,-4.1073 28.925,-12.54136 43.5,-18.74237 67.58961,-28.75633 61.88778,-25.91743 103.96147,-51.76168 13.38262,-8.22043 19.88421,-11.68535 20.81485,-11.09295 0.74435,0.47382 5.9715,9.41149 11.61589,19.86149 23.0117,42.60377 82.20277,151.64648 109.7862,202.24984 12.0669,22.13741 21.66166,40.69991 21.32169,41.25 -0.72302,1.16986 -106.33626,1.39923 -108.13513,0.23485 z M 214.00709,425.49812 c 0,-2.15897 16.09381,-33.1544 17.49375,-33.69161 2.066,-0.7928 34.00625,10.04154 34.00625,11.53514 0,0.67787 -10.58431,5.86479 -23.52069,11.52649 -26.47647,11.58763 -27.97931,12.1586 -27.97931,10.62998 z M 192.4467,410.82157 c -5.46679,-7.51365 -10.83961,-14.67859 -11.93961,-15.9221 -1.63515,-1.84846 -6.56068,-3.29703 -27,-7.94053 -13.75,-3.12378 -25.38921,-6.0546 -25.8649,-6.51293 -1.04022,-1.00224 0.15346,-1.63113 21.8649,-11.51964 9.35,-4.25847 25.9518,-11.97751 36.89289,-17.15342 40.81924,-19.31039 67.76115,-31.50975 68.33063,-30.94027 0.78025,0.78025 -5.10023,13.08559 -29.67358,62.09427 -11.30247,22.54145 -21.02712,41.11301 -21.61033,41.27013 -0.58322,0.15712 -5.53322,-5.86186 -11,-13.37551 z m 50.56039,-132.6312 c 0,-0.55986 4.87651,-10.06966 10.83669,-21.1329 5.96017,-11.06324 14.37105,-26.75248 18.69083,-34.86498 4.31978,-8.1125 8.45938,-14.75 9.1991,-14.75 0.73973,0 6.16635,2.87133 12.05917,6.38074 9.4288,5.61523 28.96085,16.80012 38.19199,21.87036 1.75348,0.96311 3.02916,2.22809 2.83483,2.81106 -0.39656,1.18968 -11.40747,6.23393 -29.31261,13.4285 -6.6,2.65198 -23.3625,9.8738 -37.25,16.04847 -13.8875,6.17467 -25.25,10.76861 -25.25,10.20875 z"/>
  </g>
</svg>
